<?xml version="1.0" ?><!DOCTYPE svg  PUBLIC '-//W3C//DTD SVG 1.1//EN'  'http://www.w3.org/Graphics/SVG/1.1/DTD/svg11.dtd'><svg viewBox="0 0 512 512" xmlns="http://www.w3.org/2000/svg" xmlns:xlink="http://www.w3.org/1999/xlink"><style>:root>svg{display:none}:root>svg:target{display:block}</style><svg viewBox="0 0 512 512" id="facebook" xmlns="http://www.w3.org/2000/svg"><path d="M258.8 507.2C120.4 507.8 6.6 392.6 9.9 251.9 13 117.9 124 7.2 262 8.7 398.7 10.2 511.8 124 508.1 264.9c-3.5 133.4-113.6 243-249.3 242.3zM40.2 258.3C41.3 383.6 142.9 480.1 262.9 478c116.2-2.1 214.7-96.8 214.7-220 0-125.3-102.4-222.2-222.8-219.9C138.6 40.2 41 135.2 40.2 258.3z"/><path d="M206.8 433.4V257.1h-38.5v-59.4c1.7-.1 3.4-.3 5.2-.3 9.3 0 18.7-.2 28 .1 4.1.1 5.5-1 5.4-5.2-.2-15.2-.2-30.3-.1-45.5.1-17.1 4.9-32.6 17.1-45 11.8-12 26.9-18.5 43.3-19.5 26.4-1.5 52.9-1.3 79.4-1.8.3 0 .6.3 1.2.6v61c-1.9.1-3.7.2-5.4.2h-36c-12.1.1-19.2 7.3-19.2 19.2 0 11.3 0 22.7.1 34 0 .3.2.6.5 1.7h60.8c-2.6 20.3-5 39.7-7.6 59.8h-54v176.6c-26.9-.2-53.1-.2-80.2-.2z"/></svg></svg>